<mxfile host="app.diagrams.net" modified="2021-03-05T16:40:09.264Z" agent="5.0 (X11)" etag="RsYZgCD0TYkba3ywDa-y" version="14.3.0" type="github">
  <diagram id="9lU35Be_tzwvDZL3-XRi" name="Page-1">
    <mxGraphModel dx="710" dy="492" grid="1" gridSize="10" guides="1" tooltips="1" connect="1" arrows="1" fold="1" page="1" pageScale="1" pageWidth="827" pageHeight="1169" math="0" shadow="0">
      <root>
        <mxCell id="0" />
        <mxCell id="1" parent="0" />
        <mxCell id="sGj-L-ND05RCWqXDiUvW-6" style="edgeStyle=orthogonalEdgeStyle;rounded=0;orthogonalLoop=1;jettySize=auto;html=1;entryX=0;entryY=0.5;entryDx=0;entryDy=0;" edge="1" parent="1" target="sGj-L-ND05RCWqXDiUvW-3">
          <mxGeometry relative="1" as="geometry">
            <mxPoint x="100" y="180" as="sourcePoint" />
          </mxGeometry>
        </mxCell>
        <mxCell id="sGj-L-ND05RCWqXDiUvW-7" style="edgeStyle=orthogonalEdgeStyle;rounded=0;orthogonalLoop=1;jettySize=auto;html=1;entryX=0;entryY=0.5;entryDx=0;entryDy=0;" edge="1" parent="1" source="sGj-L-ND05RCWqXDiUvW-1" target="sGj-L-ND05RCWqXDiUvW-2">
          <mxGeometry relative="1" as="geometry" />
        </mxCell>
        <mxCell id="sGj-L-ND05RCWqXDiUvW-8" style="edgeStyle=orthogonalEdgeStyle;rounded=0;orthogonalLoop=1;jettySize=auto;html=1;entryX=0;entryY=0.5;entryDx=0;entryDy=0;" edge="1" parent="1" source="sGj-L-ND05RCWqXDiUvW-1" target="sGj-L-ND05RCWqXDiUvW-5">
          <mxGeometry relative="1" as="geometry" />
        </mxCell>
        <mxCell id="sGj-L-ND05RCWqXDiUvW-18" style="edgeStyle=orthogonalEdgeStyle;rounded=0;orthogonalLoop=1;jettySize=auto;html=1;entryX=0;entryY=0.5;entryDx=0;entryDy=0;" edge="1" parent="1" source="sGj-L-ND05RCWqXDiUvW-1" target="sGj-L-ND05RCWqXDiUvW-17">
          <mxGeometry relative="1" as="geometry" />
        </mxCell>
        <mxCell id="sGj-L-ND05RCWqXDiUvW-20" value="" style="edgeStyle=orthogonalEdgeStyle;rounded=0;orthogonalLoop=1;jettySize=auto;html=1;entryX=0;entryY=0.5;entryDx=0;entryDy=0;" edge="1" parent="1" source="sGj-L-ND05RCWqXDiUvW-1" target="sGj-L-ND05RCWqXDiUvW-21">
          <mxGeometry relative="1" as="geometry">
            <mxPoint x="85" y="280" as="targetPoint" />
          </mxGeometry>
        </mxCell>
        <mxCell id="sGj-L-ND05RCWqXDiUvW-1" value="&lt;div&gt;usuario&lt;/div&gt;&lt;div&gt;interno&lt;br&gt;&lt;/div&gt;" style="shape=umlActor;verticalLabelPosition=bottom;verticalAlign=top;html=1;outlineConnect=0;" vertex="1" parent="1">
          <mxGeometry x="70" y="150" width="30" height="60" as="geometry" />
        </mxCell>
        <mxCell id="sGj-L-ND05RCWqXDiUvW-2" value="Gestionar Lotes" style="ellipse;whiteSpace=wrap;html=1;" vertex="1" parent="1">
          <mxGeometry x="300" y="200" width="140" height="70" as="geometry" />
        </mxCell>
        <mxCell id="sGj-L-ND05RCWqXDiUvW-3" value="Gestionar solicitudes de alta para cuenta" style="ellipse;whiteSpace=wrap;html=1;" vertex="1" parent="1">
          <mxGeometry x="300" y="110" width="140" height="70" as="geometry" />
        </mxCell>
        <mxCell id="sGj-L-ND05RCWqXDiUvW-12" value="&amp;lt;&amp;lt;ext&amp;gt;&amp;gt;" style="edgeStyle=orthogonalEdgeStyle;rounded=0;orthogonalLoop=1;jettySize=auto;html=1;dashed=1;" edge="1" parent="1" source="sGj-L-ND05RCWqXDiUvW-4" target="sGj-L-ND05RCWqXDiUvW-11">
          <mxGeometry relative="1" as="geometry" />
        </mxCell>
        <mxCell id="sGj-L-ND05RCWqXDiUvW-4" value="Gestionar Articulo de Lote" style="ellipse;whiteSpace=wrap;html=1;" vertex="1" parent="1">
          <mxGeometry x="510" y="470" width="140" height="70" as="geometry" />
        </mxCell>
        <mxCell id="sGj-L-ND05RCWqXDiUvW-5" value="Gestionar Cuentas de Usuarios Externos" style="ellipse;whiteSpace=wrap;html=1;" vertex="1" parent="1">
          <mxGeometry x="300" y="290" width="140" height="70" as="geometry" />
        </mxCell>
        <mxCell id="sGj-L-ND05RCWqXDiUvW-13" value="&amp;lt;&amp;lt;ext&amp;gt;&amp;gt;" style="edgeStyle=orthogonalEdgeStyle;rounded=0;orthogonalLoop=1;jettySize=auto;html=1;entryX=1;entryY=0.5;entryDx=0;entryDy=0;dashed=1;" edge="1" parent="1">
          <mxGeometry x="-0.1429" y="-15" relative="1" as="geometry">
            <mxPoint x="510" y="235" as="sourcePoint" />
            <mxPoint x="440" y="235" as="targetPoint" />
            <mxPoint as="offset" />
          </mxGeometry>
        </mxCell>
        <mxCell id="sGj-L-ND05RCWqXDiUvW-9" value="Listar Lotes" style="ellipse;whiteSpace=wrap;html=1;" vertex="1" parent="1">
          <mxGeometry x="510" y="200" width="140" height="70" as="geometry" />
        </mxCell>
        <mxCell id="sGj-L-ND05RCWqXDiUvW-14" value="&amp;lt;&amp;lt;ext&amp;gt;&amp;gt;" style="edgeStyle=orthogonalEdgeStyle;rounded=0;orthogonalLoop=1;jettySize=auto;html=1;entryX=0.5;entryY=1;entryDx=0;entryDy=0;dashed=1;" edge="1" parent="1" source="sGj-L-ND05RCWqXDiUvW-11" target="sGj-L-ND05RCWqXDiUvW-9">
          <mxGeometry relative="1" as="geometry" />
        </mxCell>
        <mxCell id="sGj-L-ND05RCWqXDiUvW-11" value="Modificar Lote" style="ellipse;whiteSpace=wrap;html=1;" vertex="1" parent="1">
          <mxGeometry x="510" y="340" width="140" height="70" as="geometry" />
        </mxCell>
        <mxCell id="sGj-L-ND05RCWqXDiUvW-16" value="&amp;lt;&amp;lt;ext&amp;gt;&amp;gt;" style="edgeStyle=orthogonalEdgeStyle;rounded=0;orthogonalLoop=1;jettySize=auto;html=1;entryX=1;entryY=0.5;entryDx=0;entryDy=0;dashed=1;" edge="1" parent="1" source="sGj-L-ND05RCWqXDiUvW-15" target="sGj-L-ND05RCWqXDiUvW-3">
          <mxGeometry x="-0.1429" y="-15" relative="1" as="geometry">
            <mxPoint as="offset" />
          </mxGeometry>
        </mxCell>
        <mxCell id="sGj-L-ND05RCWqXDiUvW-15" value="Aceptar/Denegar Solicitud" style="ellipse;whiteSpace=wrap;html=1;" vertex="1" parent="1">
          <mxGeometry x="510" y="110" width="140" height="70" as="geometry" />
        </mxCell>
        <mxCell id="sGj-L-ND05RCWqXDiUvW-23" value="&amp;lt;&amp;lt;ext&amp;gt;&amp;gt;" style="edgeStyle=orthogonalEdgeStyle;rounded=0;orthogonalLoop=1;jettySize=auto;html=1;dashed=1;" edge="1" parent="1" source="sGj-L-ND05RCWqXDiUvW-22" target="sGj-L-ND05RCWqXDiUvW-17">
          <mxGeometry x="-0.1429" y="-25" relative="1" as="geometry">
            <mxPoint as="offset" />
          </mxGeometry>
        </mxCell>
        <mxCell id="sGj-L-ND05RCWqXDiUvW-17" value="Editar Perfil Personal" style="ellipse;whiteSpace=wrap;html=1;" vertex="1" parent="1">
          <mxGeometry x="300" y="730" width="140" height="70" as="geometry" />
        </mxCell>
        <mxCell id="sGj-L-ND05RCWqXDiUvW-25" value="&amp;lt;&amp;lt;est&amp;gt;&amp;gt;" style="edgeStyle=orthogonalEdgeStyle;rounded=0;orthogonalLoop=1;jettySize=auto;html=1;dashed=1;" edge="1" parent="1" source="sGj-L-ND05RCWqXDiUvW-24" target="sGj-L-ND05RCWqXDiUvW-21">
          <mxGeometry relative="1" as="geometry" />
        </mxCell>
        <mxCell id="sGj-L-ND05RCWqXDiUvW-21" value="Gestionar Subasta" style="ellipse;whiteSpace=wrap;html=1;" vertex="1" parent="1">
          <mxGeometry x="300" y="380" width="140" height="70" as="geometry" />
        </mxCell>
        <mxCell id="sGj-L-ND05RCWqXDiUvW-22" value="Renovar Contrasena" style="ellipse;whiteSpace=wrap;html=1;" vertex="1" parent="1">
          <mxGeometry x="510" y="730" width="140" height="70" as="geometry" />
        </mxCell>
        <mxCell id="sGj-L-ND05RCWqXDiUvW-27" value="&amp;lt;&amp;lt;inc&amp;gt;&amp;gt;" style="edgeStyle=orthogonalEdgeStyle;rounded=0;orthogonalLoop=1;jettySize=auto;html=1;dashed=1;" edge="1" parent="1" source="sGj-L-ND05RCWqXDiUvW-24" target="sGj-L-ND05RCWqXDiUvW-26">
          <mxGeometry relative="1" as="geometry" />
        </mxCell>
        <mxCell id="sGj-L-ND05RCWqXDiUvW-24" value="&lt;div&gt;Crear Subasta&lt;/div&gt;" style="ellipse;whiteSpace=wrap;html=1;" vertex="1" parent="1">
          <mxGeometry x="300" y="510" width="140" height="70" as="geometry" />
        </mxCell>
        <mxCell id="sGj-L-ND05RCWqXDiUvW-26" value="Seleccionar Lotes" style="ellipse;whiteSpace=wrap;html=1;" vertex="1" parent="1">
          <mxGeometry x="300" y="630" width="140" height="70" as="geometry" />
        </mxCell>
        <mxCell id="sGj-L-ND05RCWqXDiUvW-29" style="edgeStyle=orthogonalEdgeStyle;rounded=0;orthogonalLoop=1;jettySize=auto;html=1;endArrow=block;endFill=0;" edge="1" parent="1" source="sGj-L-ND05RCWqXDiUvW-28" target="sGj-L-ND05RCWqXDiUvW-1">
          <mxGeometry relative="1" as="geometry" />
        </mxCell>
        <mxCell id="sGj-L-ND05RCWqXDiUvW-30" style="edgeStyle=orthogonalEdgeStyle;rounded=0;orthogonalLoop=1;jettySize=auto;html=1;entryX=0;entryY=1;entryDx=0;entryDy=0;endArrow=classic;endFill=1;" edge="1" parent="1" source="sGj-L-ND05RCWqXDiUvW-28" target="sGj-L-ND05RCWqXDiUvW-17">
          <mxGeometry relative="1" as="geometry">
            <Array as="points">
              <mxPoint x="230" y="880" />
              <mxPoint x="230" y="840" />
              <mxPoint x="321" y="840" />
            </Array>
          </mxGeometry>
        </mxCell>
        <mxCell id="sGj-L-ND05RCWqXDiUvW-32" style="edgeStyle=orthogonalEdgeStyle;rounded=0;orthogonalLoop=1;jettySize=auto;html=1;entryX=0;entryY=0.5;entryDx=0;entryDy=0;endArrow=classic;endFill=1;" edge="1" parent="1" source="sGj-L-ND05RCWqXDiUvW-28" target="sGj-L-ND05RCWqXDiUvW-31">
          <mxGeometry relative="1" as="geometry">
            <Array as="points">
              <mxPoint x="230" y="880" />
              <mxPoint x="230" y="905" />
            </Array>
          </mxGeometry>
        </mxCell>
        <mxCell id="sGj-L-ND05RCWqXDiUvW-42" style="edgeStyle=orthogonalEdgeStyle;rounded=0;orthogonalLoop=1;jettySize=auto;html=1;entryX=0;entryY=0.5;entryDx=0;entryDy=0;endArrow=classic;endFill=1;" edge="1" parent="1" source="sGj-L-ND05RCWqXDiUvW-28" target="sGj-L-ND05RCWqXDiUvW-41">
          <mxGeometry relative="1" as="geometry">
            <Array as="points">
              <mxPoint x="230" y="880" />
              <mxPoint x="230" y="1055" />
            </Array>
          </mxGeometry>
        </mxCell>
        <mxCell id="sGj-L-ND05RCWqXDiUvW-28" value="&lt;div&gt;Usuario&lt;/div&gt;&lt;div&gt;Externo&lt;br&gt;&lt;/div&gt;" style="shape=umlActor;verticalLabelPosition=bottom;verticalAlign=top;html=1;" vertex="1" parent="1">
          <mxGeometry x="70" y="850" width="30" height="60" as="geometry" />
        </mxCell>
        <mxCell id="sGj-L-ND05RCWqXDiUvW-34" value="&amp;lt;&amp;lt;ext&amp;gt;&amp;gt;" style="edgeStyle=orthogonalEdgeStyle;rounded=0;orthogonalLoop=1;jettySize=auto;html=1;endArrow=classic;endFill=1;dashed=1;" edge="1" parent="1" source="sGj-L-ND05RCWqXDiUvW-33" target="sGj-L-ND05RCWqXDiUvW-31">
          <mxGeometry y="-25" relative="1" as="geometry">
            <mxPoint as="offset" />
          </mxGeometry>
        </mxCell>
        <mxCell id="sGj-L-ND05RCWqXDiUvW-31" value="Listar Subastas Activas" style="ellipse;whiteSpace=wrap;html=1;" vertex="1" parent="1">
          <mxGeometry x="290" y="870" width="140" height="70" as="geometry" />
        </mxCell>
        <mxCell id="sGj-L-ND05RCWqXDiUvW-36" value="&amp;lt;&amp;lt;ext&amp;gt;&amp;gt;" style="edgeStyle=orthogonalEdgeStyle;rounded=0;orthogonalLoop=1;jettySize=auto;html=1;endArrow=classic;endFill=1;dashed=1;" edge="1" parent="1" source="sGj-L-ND05RCWqXDiUvW-35" target="sGj-L-ND05RCWqXDiUvW-33">
          <mxGeometry relative="1" as="geometry" />
        </mxCell>
        <mxCell id="sGj-L-ND05RCWqXDiUvW-38" value="&amp;lt;&amp;lt;ext&amp;gt;&amp;gt;" style="edgeStyle=orthogonalEdgeStyle;rounded=0;orthogonalLoop=1;jettySize=auto;html=1;endArrow=classic;endFill=1;dashed=1;" edge="1" parent="1" source="sGj-L-ND05RCWqXDiUvW-37" target="sGj-L-ND05RCWqXDiUvW-33">
          <mxGeometry y="-25" relative="1" as="geometry">
            <mxPoint as="offset" />
          </mxGeometry>
        </mxCell>
        <mxCell id="sGj-L-ND05RCWqXDiUvW-33" value="Ver Subasta " style="ellipse;whiteSpace=wrap;html=1;" vertex="1" parent="1">
          <mxGeometry x="510" y="870" width="140" height="70" as="geometry" />
        </mxCell>
        <mxCell id="sGj-L-ND05RCWqXDiUvW-40" value="&amp;lt;&amp;lt;inc&amp;gt;&amp;gt;" style="edgeStyle=orthogonalEdgeStyle;rounded=0;orthogonalLoop=1;jettySize=auto;html=1;dashed=1;endArrow=classic;endFill=1;" edge="1" parent="1" source="sGj-L-ND05RCWqXDiUvW-35" target="sGj-L-ND05RCWqXDiUvW-39">
          <mxGeometry y="25" relative="1" as="geometry">
            <mxPoint as="offset" />
          </mxGeometry>
        </mxCell>
        <mxCell id="sGj-L-ND05RCWqXDiUvW-35" value="Realizar Puja" style="ellipse;whiteSpace=wrap;html=1;" vertex="1" parent="1">
          <mxGeometry x="510" y="1020" width="140" height="70" as="geometry" />
        </mxCell>
        <mxCell id="sGj-L-ND05RCWqXDiUvW-37" value="Ver Lote" style="ellipse;whiteSpace=wrap;html=1;" vertex="1" parent="1">
          <mxGeometry x="730" y="870" width="140" height="70" as="geometry" />
        </mxCell>
        <mxCell id="sGj-L-ND05RCWqXDiUvW-39" value="Confirmar Participacion" style="ellipse;whiteSpace=wrap;html=1;" vertex="1" parent="1">
          <mxGeometry x="730" y="1020" width="140" height="70" as="geometry" />
        </mxCell>
        <mxCell id="sGj-L-ND05RCWqXDiUvW-44" value="&amp;lt;&amp;lt;ext&amp;gt;&amp;gt;" style="edgeStyle=orthogonalEdgeStyle;rounded=0;orthogonalLoop=1;jettySize=auto;html=1;dashed=1;endArrow=classic;endFill=1;fontStyle=1" edge="1" parent="1" source="sGj-L-ND05RCWqXDiUvW-43" target="sGj-L-ND05RCWqXDiUvW-41">
          <mxGeometry relative="1" as="geometry" />
        </mxCell>
        <mxCell id="sGj-L-ND05RCWqXDiUvW-48" style="edgeStyle=orthogonalEdgeStyle;rounded=0;orthogonalLoop=1;jettySize=auto;html=1;entryX=0.5;entryY=1;entryDx=0;entryDy=0;endArrow=block;endFill=0;" edge="1" parent="1" source="sGj-L-ND05RCWqXDiUvW-41" target="sGj-L-ND05RCWqXDiUvW-31">
          <mxGeometry relative="1" as="geometry" />
        </mxCell>
        <mxCell id="sGj-L-ND05RCWqXDiUvW-41" value="Listar Subastas Programadas" style="ellipse;whiteSpace=wrap;html=1;" vertex="1" parent="1">
          <mxGeometry x="290" y="1020" width="140" height="70" as="geometry" />
        </mxCell>
        <mxCell id="sGj-L-ND05RCWqXDiUvW-46" value="&amp;lt;&amp;lt;ext&amp;gt;&amp;gt;" style="edgeStyle=orthogonalEdgeStyle;rounded=0;orthogonalLoop=1;jettySize=auto;html=1;dashed=1;endArrow=classic;endFill=1;" edge="1" parent="1" source="sGj-L-ND05RCWqXDiUvW-45" target="sGj-L-ND05RCWqXDiUvW-43">
          <mxGeometry y="-25" relative="1" as="geometry">
            <mxPoint as="offset" />
          </mxGeometry>
        </mxCell>
        <mxCell id="sGj-L-ND05RCWqXDiUvW-47" style="edgeStyle=orthogonalEdgeStyle;rounded=0;orthogonalLoop=1;jettySize=auto;html=1;entryX=0;entryY=1;entryDx=0;entryDy=0;endArrow=block;endFill=0;" edge="1" parent="1" source="sGj-L-ND05RCWqXDiUvW-43" target="sGj-L-ND05RCWqXDiUvW-33">
          <mxGeometry relative="1" as="geometry">
            <Array as="points">
              <mxPoint x="410" y="1150" />
              <mxPoint x="470" y="1150" />
              <mxPoint x="470" y="960" />
              <mxPoint x="531" y="960" />
            </Array>
          </mxGeometry>
        </mxCell>
        <mxCell id="sGj-L-ND05RCWqXDiUvW-43" value="Ver Subasta Programada" style="ellipse;whiteSpace=wrap;html=1;" vertex="1" parent="1">
          <mxGeometry x="290" y="1170" width="140" height="70" as="geometry" />
        </mxCell>
        <mxCell id="sGj-L-ND05RCWqXDiUvW-45" value="Realizar Oferta" style="ellipse;whiteSpace=wrap;html=1;" vertex="1" parent="1">
          <mxGeometry x="510" y="1170" width="140" height="70" as="geometry" />
        </mxCell>
      </root>
    </mxGraphModel>
  </diagram>
</mxfile>
